<svg width="960" height="960" viewBox="0 0 960 960" fill="none" xmlns="http://www.w3.org/2000/svg">
<path d="M535.564 291.581C539.663 294.623 541.241 301.54 539.786 306.202C538.402 310.638 533.987 314.153 529.345 313.825C527.394 313.625 525.542 312.867 524.01 311.642C522.478 310.418 521.332 308.778 520.707 306.919C520.129 305.045 520.007 303.061 520.351 301.131C520.695 299.201 521.495 297.38 522.685 295.822C525.502 292.072 531.274 288.404 535.564 291.581Z" fill="#171717"/>
<path d="M502.253 351.46L482.284 410.048L442.579 366.644L502.253 351.46Z" fill="#171717"/>
<path d="M481.556 603.774C481.806 604.727 481.862 605.72 481.721 606.695C481.465 608.537 480.766 610.29 479.685 611.803C478.603 613.316 477.171 614.544 475.511 615.383C473.759 616.254 471.054 616.275 470.44 614.421C469.907 612.821 471.42 611.336 472.776 610.332C475.706 608.139 478.633 605.953 481.556 603.774Z" fill="url(#paint0_linear_385_966)"/>
<path d="M472.231 581.561C473.758 581.704 474.004 583.824 473.718 585.321C472.696 590.527 470.495 595.43 467.283 599.653C466.446 596.845 466.261 593.883 466.74 590.993C467.22 588.103 468.351 585.36 470.049 582.972C470.582 582.247 471.33 581.478 472.231 581.561Z" fill="url(#paint1_linear_385_966)"/>
<path d="M467.283 599.653C470.496 595.429 472.697 590.525 473.718 585.318C474.004 583.821 473.759 581.701 472.232 581.558C471.33 581.475 470.582 582.244 470.049 582.972C468.352 585.359 467.22 588.103 466.741 590.993C466.261 593.883 466.447 596.845 467.283 599.653ZM472.601 574.468C477.655 574.468 482.596 575.966 486.798 578.774C491.001 581.582 494.276 585.573 496.21 590.243C498.144 594.912 498.65 600.05 497.664 605.007C496.678 609.965 494.245 614.518 490.671 618.092C487.097 621.665 482.544 624.099 477.587 625.085C472.63 626.071 467.491 625.565 462.822 623.631C458.153 621.697 454.162 618.422 451.354 614.219C448.546 610.017 447.047 605.076 447.047 600.022C447.047 596.666 447.708 593.343 448.992 590.243C450.276 587.142 452.158 584.325 454.531 581.952C456.904 579.579 459.721 577.697 462.822 576.413C465.922 575.128 469.245 574.468 472.601 574.468ZM481.721 606.693C481.861 605.718 481.805 604.725 481.556 603.772C478.636 605.955 475.709 608.141 472.776 610.33C471.422 611.334 469.906 612.819 470.439 614.419C471.054 616.273 473.758 616.252 475.511 615.381C477.17 614.542 478.602 613.314 479.684 611.801C480.765 610.289 481.464 608.536 481.721 606.695V606.693Z" fill="url(#paint2_linear_385_966)"/>
<path d="M299.009 541.651C410.796 521.072 525.554 523.607 639.277 526.221L639.288 526.251C644.513 524.253 651.511 530.103 652.116 535.756L651.389 535.839C591.407 536.74 531.425 537.639 471.443 538.534C411.902 539.424 351.88 540.367 293.743 553.185C292.594 548.903 294.87 543.626 299.204 542.699L299.009 541.651Z" fill="url(#paint3_linear_385_966)"/>
<path d="M624.829 552.451C522.981 553.353 419.535 537.532 320.208 560.074C319.962 560.125 319.718 560.187 319.47 560.248C314.983 561.263 310.412 562.287 305.843 561.816C301.027 561.314 296.098 558.794 294.152 554.356C293.984 553.979 293.847 553.588 293.742 553.188C351.879 540.37 411.901 539.428 471.442 538.537C531.425 537.634 591.407 536.736 651.388 535.842L652.115 535.76C652.135 535.965 652.156 536.169 652.156 536.374C652.289 542.286 647.679 547.481 642.258 549.869C641.276 550.298 640.266 550.661 639.235 550.955C634.635 552.297 629.676 552.41 624.829 552.451Z" fill="url(#paint4_linear_385_966)"/>
<path d="M398.224 298.876C404.75 292.769 414.085 297.811 413.296 306.602C412.972 309.112 411.876 311.459 410.159 313.318C408.443 315.178 406.191 316.458 403.716 316.982C400.939 317.576 397.773 317.115 395.778 315.096C393.237 312.503 393.391 308.262 394.579 304.839C395.293 302.585 396.544 300.539 398.224 298.876V298.876Z" fill="#171717"/>
<path d="M349.43 296.714C333.012 299.72 317.247 305.581 302.851 314.03C290.613 321.131 279.156 329.501 268.669 339C245.748 359.564 226.896 384.176 208.186 408.624C210.205 368.262 217.427 328.33 229.672 289.818C235.462 271.61 243.023 252.849 258.044 241.056C270.217 231.507 285.801 227.715 300.868 224.18C338.584 215.318 376.373 206.443 414.387 198.985C434.459 195.03 454.603 191.474 474.829 188.534C491.439 186.105 508.099 184.077 524.831 182.58C557.947 179.609 593.134 179.117 622.263 195.142C652.591 211.844 671.117 243.454 688.167 273.578C706.703 306.308 725.791 341.172 724.705 378.765C708.403 364.042 691.938 349.205 672.866 338.314C663.258 332.741 652.94 328.495 642.193 325.69C631.653 322.921 620.687 322.16 609.865 323.446" stroke="#171717" stroke-width="4" stroke-linecap="round" stroke-linejoin="round"/>
<path d="M302.974 314.234C289.018 352.894 275.063 391.56 261.108 430.233C273.752 420.386 286.399 410.543 299.05 400.703C292.984 417.774 286.922 434.84 280.863 451.903C287.342 445.064 295.181 439.656 303.876 436.028C285.794 468.869 280.069 507.098 287.738 543.795C291.488 543.047 295.244 542.333 299.007 541.654C410.794 521.075 525.552 523.61 639.275 526.223C637.605 500.75 635.932 475.285 634.255 449.827C646.52 459.56 657.656 470.637 667.453 482.851C659.993 444.162 650.809 405.862 639.9 367.95C652.432 375.347 664.963 382.752 677.494 390.163C664.5 369.708 652.625 348.563 641.922 326.821" stroke="#171717" stroke-width="4" stroke-linecap="round" stroke-linejoin="round"/>
<path d="M299.204 542.706C294.87 543.628 292.594 548.905 293.743 553.192C293.848 553.591 293.985 553.982 294.153 554.36C296.099 558.797 301.028 561.317 305.843 561.819C310.413 562.29 314.984 561.266 319.471 560.251C319.717 560.19 319.961 560.129 320.209 560.078C419.536 537.539 522.982 553.356 624.83 552.455C629.677 552.414 634.636 552.301 639.235 550.958C640.266 550.664 641.276 550.301 642.258 549.872C647.678 547.484 652.289 542.29 652.156 536.378C652.156 536.173 652.135 535.968 652.115 535.763C651.51 530.107 644.512 524.256 639.287 526.257C639.213 526.28 639.141 526.308 639.071 526.34" stroke="#171717" stroke-width="4" stroke-linecap="round" stroke-linejoin="round"/>
<path d="M292.949 553.362C293.216 553.301 293.473 553.25 293.739 553.188C351.876 540.37 411.898 539.427 471.439 538.537C531.422 537.634 591.403 536.736 651.385 535.842" stroke="#171717" stroke-width="4" stroke-linecap="round" stroke-linejoin="round"/>
<path d="M320.388 578.917C312.959 579.015 305.336 582.371 298.552 589.594C292.62 595.916 288.993 604.062 286.349 612.31C278.788 636.121 278.552 661.654 285.673 685.601C288.153 693.84 291.575 701.966 297.236 708.44C302.898 714.913 311.054 719.599 319.655 719.513C322.157 719.493 324.642 719.089 327.022 718.315C337.432 714.983 345.69 705.189 350.947 695.138C366.88 664.686 365.702 625.953 347.945 596.528C341.132 585.248 330.957 578.78 320.388 578.917Z" stroke="#171717" stroke-width="4" stroke-linecap="round" stroke-linejoin="round"/>
<path d="M642.792 570.731C632.545 576.036 623.918 586.418 618.733 595.635C610.854 609.611 607.616 625.791 606.694 641.805C606.027 653.25 606.498 664.89 609.732 675.895C612.966 686.9 619.107 697.268 628.267 704.174C631.976 706.994 636.24 708.997 640.778 710.054C645.993 711.222 651.361 710.874 655.973 708.22C661.352 705.116 664.734 699.47 667.356 693.824C681.353 663.69 679.703 628.74 674.928 595.85C673.164 583.656 668.473 565.028 652.487 567.467C649.098 568.016 645.823 569.119 642.792 570.731V570.731Z" stroke="#171717" stroke-width="4" stroke-linecap="round" stroke-linejoin="round"/>
<path d="M319.461 559.992C319.461 560.075 319.471 560.167 319.471 560.248C319.778 566.274 320.066 572.288 320.372 578.312" stroke="#171717" stroke-width="4" stroke-linecap="round" stroke-linejoin="round"/>
<path d="M327.012 718.317L293.752 789.785C306.499 781.342 319.245 772.896 331.991 764.446L309.09 820.052C316.112 812.448 324.29 805.998 333.323 800.943C324.809 818.505 316.294 836.06 307.779 853.609C314.217 849.534 321.403 846.782 328.917 845.515" stroke="#171717" stroke-width="4" stroke-linecap="round" stroke-linejoin="round"/>
<path d="M423.9 894.81C424.372 896.521 424.836 898.232 425.294 899.943C395.918 903.47 366.541 906.992 337.166 910.507C322.667 912.238 308.176 913.973 293.691 915.712C289.213 916.245 279.869 919.647 277.922 914.103C276.539 910.168 280.873 901.131 282.276 897.402C290.649 874.894 307.602 856.623 329.42 846.591C338.959 842.145 349.196 839.386 359.677 838.435C370.989 837.42 382.824 838.64 392.752 844.163C402.435 849.552 409.618 858.65 414.566 868.559C418.717 876.882 421.431 885.823 423.9 894.81Z" stroke="#171717" stroke-width="4" stroke-linecap="round" stroke-linejoin="round"/>
<path d="M523.689 893.16C523.31 894.296 522.971 895.455 522.643 896.612C521.404 901.039 520.676 906.336 523.77 909.738C526.619 912.874 531.455 912.955 535.697 912.801L634.169 909.236C643.533 908.898 664.415 912.504 670.461 903.191C675.984 894.696 670.041 879.563 666.24 871.529C663.254 865.225 659.333 859.408 654.61 854.275C651.782 851.201 643.595 841.785 639.097 841.785C638.072 841.19 637.039 840.626 635.982 840.104C615.049 829.438 588.952 829.97 567.854 840.473C546.783 850.965 530.912 870.731 523.689 893.16Z" stroke="#171717" stroke-width="4" stroke-linecap="round" stroke-linejoin="round"/>
<path d="M422.937 894.83C423.254 894.819 423.582 894.819 423.9 894.81C456.852 894.163 489.8 893.51 522.746 892.85" stroke="#171717" stroke-width="4" stroke-linecap="round" stroke-linejoin="round"/>
<path d="M640.712 709.475L640.774 710.063C642.94 732.139 647.36 753.936 653.965 775.113C648.505 767.911 641.916 761.64 634.452 756.544C637.628 767.804 641.227 778.938 645.251 789.947C649.667 802.119 654.588 814.097 660.016 825.88C654.059 821.902 647.854 818.309 641.439 815.122C638.068 813.441 634.642 811.877 631.162 810.429C632.843 820.183 634.517 829.941 636.183 839.702" stroke="#171717" stroke-width="4" stroke-linecap="round" stroke-linejoin="round"/>
<path d="M645.2 789.929C645.22 789.938 645.23 789.949 645.251 789.949C671.04 802.654 704.228 798.475 726.053 779.764C747.898 761.047 757.109 728.861 748.471 701.411C764.794 708.296 774.743 725.42 778.688 742.693C783.483 763.708 780.85 786.475 770.696 805.492C760.542 824.509 742.836 839.51 722.179 845.67C701.523 851.83 678.172 848.877 660.097 837.135C653.95 833.149 645.527 824.112 641.367 815.259" stroke="#171717" stroke-width="4" stroke-linecap="round" stroke-linejoin="round"/>
<path d="M398.224 298.876C396.543 300.539 395.291 302.585 394.576 304.839C393.388 308.262 393.234 312.503 395.775 315.096C397.773 317.115 400.939 317.576 403.713 316.982C406.188 316.458 408.44 315.178 410.156 313.318C411.873 311.459 412.969 309.112 413.293 306.602C414.085 297.811 404.75 292.769 398.224 298.876Z" stroke="#171717" stroke-width="4" stroke-linecap="round" stroke-linejoin="round"/>
<path d="M522.685 295.822C521.495 297.38 520.695 299.201 520.351 301.131C520.007 303.061 520.129 305.045 520.707 306.919C521.332 308.778 522.478 310.418 524.01 311.642C525.542 312.867 527.394 313.625 529.345 313.825C533.987 314.153 538.402 310.638 539.786 306.202C541.241 301.54 539.663 294.623 535.564 291.581C531.274 288.404 525.502 292.072 522.685 295.822Z" stroke="#171717" stroke-width="4" stroke-linecap="round" stroke-linejoin="round"/>
<path d="M438.901 459.036C447.693 466.055 457.447 472.11 468.246 475.246C479.045 478.382 491.004 478.401 501.239 473.76C511.475 469.119 519.672 459.415 521.015 448.257" stroke="#171717" stroke-width="4" stroke-linecap="round" stroke-linejoin="round"/>
<path d="M482.284 410.048C483.442 432.098 484.599 454.154 485.757 476.218" stroke="#171717" stroke-width="4" stroke-linecap="round" stroke-linejoin="round"/>
<path d="M482.284 410.048L502.253 351.46L442.579 366.644L482.284 410.048Z" stroke="#171717" stroke-width="4" stroke-linecap="round" stroke-linejoin="round"/>
<path d="M414.259 198.37C420.038 179.407 427.228 160.902 435.766 143.01C433.779 155.94 431.791 168.878 429.803 181.823C442.857 164.064 457.032 147.157 472.243 131.206C466.29 146.073 460.333 160.935 454.373 175.794C471.024 164.035 488.532 153.541 506.752 144.4C493.103 156.352 482.171 171.088 474.692 187.616" stroke="#171717" stroke-width="4" stroke-linecap="round" stroke-linejoin="round"/>
<path d="M472.119 548.424V574.468" stroke="#171717" stroke-width="4" stroke-linecap="round" stroke-linejoin="round"/>
<path d="M472.601 625.578C486.714 625.578 498.155 614.137 498.155 600.024C498.155 585.911 486.714 574.47 472.601 574.47C458.488 574.47 447.047 585.911 447.047 600.024C447.047 614.137 458.488 625.578 472.601 625.578Z" stroke="#171717" stroke-width="4" stroke-linecap="round" stroke-linejoin="round"/>
<path d="M481.556 603.775L485.429 600.885" stroke="#171717" stroke-width="3" stroke-linecap="round" stroke-linejoin="round"/>
<path d="M481.556 603.774C481.806 604.727 481.862 605.72 481.721 606.695C481.465 608.537 480.766 610.29 479.685 611.803C478.603 613.316 477.171 614.544 475.511 615.383C473.759 616.254 471.054 616.275 470.44 614.421C469.907 612.821 471.42 611.336 472.776 610.332C475.706 608.139 478.633 605.953 481.556 603.774Z" stroke="#171717" stroke-width="3" stroke-linecap="round" stroke-linejoin="round"/>
<path d="M467.283 599.652C467.649 600.896 468.151 602.095 468.78 603.228C469.743 604.96 471.669 606.722 473.452 605.874C475.173 605.044 475.216 602.401 476.812 601.356C477.488 600.999 478.27 600.9 479.012 601.077C479.755 601.254 480.408 601.695 480.85 602.319C481.17 602.758 481.409 603.251 481.556 603.774" stroke="#171717" stroke-width="3" stroke-linecap="round" stroke-linejoin="round"/>
<path d="M467.283 599.653C470.495 595.429 472.697 590.525 473.718 585.318C474.004 583.822 473.758 581.701 472.231 581.558C471.33 581.476 470.582 582.244 470.049 582.972C468.351 585.36 467.22 588.103 466.74 590.993C466.261 593.883 466.446 596.845 467.283 599.653Z" stroke="#171717" stroke-width="3" stroke-linecap="round" stroke-linejoin="round"/>
<path d="M457.974 608.169C461.578 605.934 464.735 603.047 467.283 599.655" stroke="#171717" stroke-width="3" stroke-linecap="round" stroke-linejoin="round"/>
<path d="M639.533 551.907C640.506 558.66 641.479 563.353 642.463 570.105" stroke="#171717" stroke-width="4" stroke-linecap="round" stroke-linejoin="round"/>
<path d="M400.21 622.699C399.237 617.637 398.257 612.574 397.271 607.51" stroke="#171717" stroke-width="4" stroke-linecap="round" stroke-linejoin="round"/>
<path d="M484.087 672.578C484.558 667.998 485.036 663.418 485.522 658.838" stroke="#171717" stroke-width="4" stroke-linecap="round" stroke-linejoin="round"/>
<path d="M562.112 640.027C562.604 635.201 563.103 630.382 563.609 625.569" stroke="#171717" stroke-width="4" stroke-linecap="round" stroke-linejoin="round"/>
<path d="M528.27 708.747C529.212 702.722 530.154 696.691 531.097 690.652" stroke="#171717" stroke-width="4" stroke-linecap="round" stroke-linejoin="round"/>
<path d="M459.577 744.916C459.823 739.373 460.066 733.827 460.305 728.276" stroke="#171717" stroke-width="4" stroke-linecap="round" stroke-linejoin="round"/>
<path d="M415.765 701.534C416.021 696.114 415.153 690.7 413.217 685.632" stroke="#171717" stroke-width="4" stroke-linecap="round" stroke-linejoin="round"/>
<path d="M399.852 791.906C399.555 786.865 399.251 781.821 398.94 776.772" stroke="#171717" stroke-width="4" stroke-linecap="round" stroke-linejoin="round"/>
<path d="M466.812 833.157C466.681 828.772 466.548 824.39 466.413 820.011C467.028 819.815 467.642 819.611 468.257 819.406" stroke="#171717" stroke-width="4" stroke-linecap="round" stroke-linejoin="round"/>
<path d="M531.25 791.22C532.203 786.148 533.16 781.083 534.119 776.024" stroke="#171717" stroke-width="4" stroke-linecap="round" stroke-linejoin="round"/>
<path d="M582.533 759.385C583.741 754.805 584.947 750.222 586.15 745.635" stroke="#171717" stroke-width="4" stroke-linecap="round" stroke-linejoin="round"/>
<path d="M371.337 741.299C370.847 737.396 370.343 733.482 369.852 729.578" stroke="#171717" stroke-width="4" stroke-linecap="round" stroke-linejoin="round"/>
<path d="M136.817 472.08L110.702 443.943" stroke="#171717" stroke-width="4" stroke-linecap="round" stroke-linejoin="round"/>
<path d="M91.3582 473.116L48.541 415.996" stroke="#171717" stroke-width="4" stroke-linecap="round" stroke-linejoin="round"/>
<path d="M81.227 504.869L62.7656 485.358" stroke="#171717" stroke-width="4" stroke-linecap="round" stroke-linejoin="round"/>
<path d="M158.605 612.707L176.585 587.109" stroke="#171717" stroke-width="4" stroke-linecap="round" stroke-linejoin="round"/>
<path d="M174.322 611.359L153.795 587.422" stroke="#171717" stroke-width="4" stroke-linecap="round" stroke-linejoin="round"/>
<path d="M69.2075 857.056C66.7128 851.341 65.4072 845.178 65.37 838.942C65.3327 832.706 66.5647 826.528 68.9909 820.783C70.7695 816.637 73.2792 812.645 77.0138 810.114C80.7484 807.584 85.8912 806.792 89.81 809.028C96.5188 812.855 96.4855 822.631 101.205 828.747C106.771 835.958 118.332 836.264 125.9 831.197C133.468 826.131 137.541 817.146 139.367 808.221C141.003 800.234 139.286 789.415 131.283 787.859C124.928 786.623 119.146 792.99 118.486 799.43C117.433 809.727 126.51 819.398 136.782 820.677C147.054 821.957 157.371 816.018 163.122 807.411C168.874 798.804 170.551 787.987 169.786 777.663C168.903 765.903 165.093 754.551 158.704 744.639" stroke="#171717" stroke-width="4" stroke-linecap="round" stroke-linejoin="round"/>
<path d="M745.992 528.659C745.738 521.773 744.521 514.956 742.376 508.407" stroke="#171717" stroke-width="4" stroke-linecap="round" stroke-linejoin="round"/>
<path d="M733.749 520.98L754.78 516.931" stroke="#171717" stroke-width="4" stroke-linecap="round" stroke-linejoin="round"/>
<path d="M809.901 287.487C800.063 300.141 792.901 314.664 788.851 330.172C784.8 345.68 783.946 361.85 786.339 377.699C787.97 388.097 792.347 399.738 802.347 403.025C810.375 405.664 819.116 401.791 825.905 396.759C831.37 392.71 836.659 386.649 835.476 379.951C834.178 372.608 824.598 368.71 817.884 371.948C811.169 375.185 808.008 383.641 809.483 390.95C810.957 398.259 816.259 404.344 822.516 408.4C829.934 413.209 839.776 416.747 841.971 425.311C843.533 431.404 840.305 437.767 836.074 442.42C832.265 446.609 827.302 450.083 821.675 450.704C816.048 451.324 809.818 448.43 807.858 443.119C805.898 437.808 809.868 430.815 815.529 430.863" stroke="#171717" stroke-width="4" stroke-linecap="round" stroke-linejoin="round"/>
<path d="M868.51 191.016L910.902 113.44L909.299 115.506" stroke="#171717" stroke-width="4" stroke-linecap="round" stroke-linejoin="round"/>
<path d="M845.09 165.225L859.201 143.528" stroke="#171717" stroke-width="4" stroke-linecap="round" stroke-linejoin="round"/>
<path d="M885.402 220.647L897.31 198.936" stroke="#171717" stroke-width="4" stroke-linecap="round" stroke-linejoin="round"/>
<path d="M712.848 216.382C724.8 207.686 737.891 200.673 751.752 195.54" stroke="#171717" stroke-width="4" stroke-linecap="round" stroke-linejoin="round"/>
<path d="M686.347 180.751L749.985 42.7979" stroke="#171717" stroke-width="4" stroke-linecap="round" stroke-linejoin="round"/>
<path d="M651.815 147.868L648.938 96.8564" stroke="#171717" stroke-width="4" stroke-linecap="round" stroke-linejoin="round"/>
<path d="M324.111 99.9735L337.961 80.2666" stroke="#171717" stroke-width="4" stroke-linecap="round" stroke-linejoin="round"/>
<path d="M337.347 99.0381L322.157 84.9346" stroke="#171717" stroke-width="4" stroke-linecap="round" stroke-linejoin="round"/>
<path d="M162.175 301.981C148.133 299.024 134.749 289.764 130.121 276.179C125.493 262.595 132.166 245.224 145.844 240.882C154.197 238.231 163.231 240.509 171.991 240.243C180.66 239.981 189.497 236.957 195.489 230.685C201.48 224.413 204.07 214.633 200.636 206.668C197.201 198.703 187.188 193.807 179.19 197.163C168.752 201.546 167.399 217.822 175.662 225.564C183.925 233.305 197.838 232.506 206.963 225.804C216.089 219.102 220.947 207.871 222.701 196.685C224.716 183.833 222.619 169.424 213.335 160.31C204.051 151.197 186.446 150.518 179.119 161.268" stroke="#171717" stroke-width="4" stroke-linecap="round" stroke-linejoin="round"/>
<g opacity="0.1">
<path d="M267.03 235.356C259.72 237.396 256.521 243.082 252.483 249.205C248.746 254.984 245.344 260.971 242.291 267.139C235.762 280.104 230.162 293.517 225.534 307.276C220.924 320.866 217.188 334.736 214.347 348.803C212.943 355.761 211.808 362.758 210.941 369.794C210.565 373.334 210.525 376.901 210.824 380.449C211.043 384.258 210.449 388.222 210.241 392.041C209.745 401.115 223.359 400.848 224.205 392.041C224.499 388.93 224.461 385.344 225.39 382.353C226.499 379.002 227.356 375.574 227.954 372.096C229.052 365.304 230.192 358.512 231.564 351.768C234.314 338.269 237.891 324.951 242.274 311.89C246.617 298.987 251.668 286.333 257.402 273.986C260.181 267.984 263.081 262.03 265.918 256.061C267.414 252.912 268.987 249.874 270.26 246.622C271.648 243.078 271.325 241.016 270.699 237.438C270.482 236.679 269.975 236.035 269.289 235.645C268.602 235.255 267.79 235.15 267.026 235.353L267.03 235.356Z" fill="#171717"/>
</g>
<g opacity="0.1">
<path d="M304.992 310.006C298.886 316.417 296.074 326.216 292.767 334.274C289.127 343.141 285.711 352.071 282.575 361.13C279.549 369.879 276.687 378.683 273.99 387.543C272.643 391.971 271.336 396.414 270.07 400.87C268.764 405.471 266.56 410.591 267.01 415.408C267.669 422.458 275.976 424.83 280.107 418.955C282.884 415.005 283.548 409.548 284.848 404.942C286.024 400.783 287.234 396.635 288.48 392.496C291.151 383.632 293.989 374.821 296.994 366.063C299.994 357.316 303.078 348.594 306.244 339.898C309.272 331.617 314.084 322.832 314.476 313.929C314.691 309.128 308.239 306.58 304.988 309.999L304.992 310.006Z" fill="#171717"/>
</g>
<g opacity="0.1">
<path d="M303.081 435.517C297.323 441.305 294.065 450.909 291.604 458.573C288.858 467.125 286.836 475.892 285.558 484.782C284.251 493.528 283.569 502.356 283.517 511.199C283.508 519.446 282.439 531.568 288.069 538.05C291.042 541.473 297.604 540.633 299.612 536.562C301.733 532.264 301.024 528.793 300.647 524.215C300.315 520.173 300.102 516.12 300.039 512.063C299.883 503.736 300.363 495.408 301.475 487.154C302.595 479.187 304.245 471.303 306.414 463.555C308.555 455.853 312.246 447.469 312.74 439.516C313.052 434.518 306.392 432.184 303.078 435.514L303.081 435.517Z" fill="#171717"/>
</g>
<g opacity="0.1">
<path d="M313.32 578.518C306.778 580.004 302.247 585.867 298.014 590.623C293.272 595.959 289.925 602.578 287.302 609.173C281.858 622.858 280.474 637.916 281.849 652.515C283.206 667.708 287.081 682.57 293.314 696.493C297.866 706.437 309.914 723.075 322.968 718.848C328.241 717.141 331.569 709.388 326.546 705.293C322.696 702.158 318.157 701.472 314.678 697.748C311.724 694.335 309.385 690.436 307.766 686.223C302.852 674.327 299.779 661.753 298.652 648.932C297.516 636.933 298.734 624.827 302.237 613.293C303.961 607.989 306.09 602.826 308.607 597.848C311.183 592.587 315.611 588.343 317.556 582.757C318.466 580.142 315.708 577.976 313.317 578.519L313.32 578.518Z" fill="#171717"/>
</g>
<g opacity="0.1">
<path d="M326.954 557.548C319.556 562.467 318.404 579.205 328.095 582.137C331.819 583.263 335.187 580.77 336.436 577.401C337.894 573.465 335.321 571.003 334.662 567.86C334.172 565.518 334.694 562.929 334.24 560.51C333.666 557.452 329.474 555.869 326.954 557.545V557.548Z" fill="#171717"/>
</g>
<g opacity="0.1">
<path d="M653.563 565.987C646.553 566.746 641.246 572.42 636.169 576.842C630.943 581.458 626.37 586.766 622.579 592.619C614.51 604.932 609.398 618.943 607.641 633.559C605.83 647.739 607.011 662.713 612.282 676.089C614.846 682.809 618.451 689.084 622.963 694.685C627.405 700.11 634.429 707.259 641.86 707.161C647.578 707.086 651.495 700.694 648.464 695.654C646.556 692.481 643.885 691.203 641.075 688.99C638.787 687.151 636.711 685.064 634.883 682.767C631.599 678.611 629.009 673.95 627.216 668.965C623.199 657.623 621.956 645.485 623.59 633.565C625.205 621.706 629.016 610.251 634.83 599.789C637.692 594.665 640.884 589.732 644.385 585.021C648.004 580.137 653.868 576.551 656.416 570.969C657.334 568.958 656.311 565.694 653.56 565.993L653.563 565.987Z" fill="#171717"/>
</g>
<g opacity="0.1">
<path d="M345.068 841.92C341.274 841.739 338.386 843.029 335.119 844.873C331.499 846.917 327.795 848.983 324.282 851.202C317.278 855.474 310.799 860.551 304.977 866.331C299.378 872.009 294.728 879.155 290.798 886.065C288.68 889.835 286.785 893.725 285.123 897.717C283.252 902.145 280.867 906.575 282.405 911.436C283.777 915.786 289.563 919.169 293.809 916.077C299.834 911.686 301.382 902.486 304.733 895.928C308.34 889.174 312.488 882.724 317.136 876.64C321.337 870.721 325.952 865.107 330.949 859.843C333.576 857.115 336.459 854.645 339.558 852.468C342.596 850.358 345.118 848.628 347.091 845.445C347.292 845.088 347.397 844.685 347.396 844.275C347.395 843.865 347.287 843.462 347.083 843.106C346.879 842.75 346.586 842.454 346.233 842.245C345.879 842.037 345.478 841.924 345.068 841.917V841.92Z" fill="#171717"/>
</g>
<g opacity="0.1">
<path d="M589.19 831.735C584.971 831.859 580.828 832.885 577.039 834.744C573.333 836.401 569.488 837.88 565.875 839.703C558.026 843.643 550.941 848.949 544.951 855.372C532.901 868.1 524.358 883.737 520.158 900.755C518.507 907.578 526.626 915.768 533.248 910.819C537.343 907.761 537.375 904.8 538.463 900.605C539.392 896.938 540.577 893.341 542.01 889.841C545.06 882.55 549.143 875.735 554.132 869.606C559.209 863.606 564.729 857.996 570.646 852.824C573.516 850.081 576.713 847.702 580.165 845.741C584.004 843.728 587.787 842.115 591.3 839.527C594.419 837.23 593.682 831.664 589.19 831.737V831.735Z" fill="#171717"/>
</g>
<g opacity="0.1">
<path d="M331.946 716.905C327.036 719.99 323.8 725.384 321.039 730.351C318.108 735.623 315.084 740.855 312.292 746.203C306.772 756.779 300.054 768.171 297.272 779.85C296.106 784.749 302.546 789.343 306.255 785.079C314.146 776.004 319.504 764.234 324.905 753.576C327.641 748.179 330.147 742.657 332.744 737.19C335.221 731.967 338.036 726.117 337.687 720.198C337.525 717.437 334.534 715.282 331.951 716.905H331.946Z" fill="#171717"/>
</g>
<g opacity="0.1">
<path d="M335.466 763.748C332.217 765.182 331.268 767.975 329.903 771.098C328.285 774.796 326.651 778.486 325.037 782.186C321.92 789.333 318.401 796.26 315.007 803.274C311.773 809.958 321.447 815.828 325.082 809.163C329.072 801.847 332.471 794.161 335.722 786.494C338.29 780.435 343.582 771.482 340.432 765.055C339.502 763.158 337.149 763.011 335.466 763.752V763.748Z" fill="#171717"/>
</g>
<g opacity="0.1">
<path d="M336.701 799.933C330.055 802.92 326.26 813.233 323.447 819.434C320.311 826.354 314.596 835.609 316.186 843.27C317.283 848.555 323.51 848.855 327.011 846.128C330.328 843.54 331.145 839.367 332.574 835.562C334.013 831.741 335.558 827.953 337.035 824.142C339.502 817.772 344.241 809.219 342.437 802.265C341.751 799.62 338.932 798.934 336.701 799.932V799.933Z" fill="#171717"/>
</g>
<defs>
<linearGradient id="paint0_linear_385_966" x1="476.063" y1="603.774" x2="476.063" y2="615.955" gradientUnits="userSpaceOnUse">
<stop stop-color="#FFB800"/>
<stop offset="1" stop-color="#FF7F0A"/>
</linearGradient>
<linearGradient id="paint1_linear_385_966" x1="470.151" y1="581.555" x2="470.151" y2="599.653" gradientUnits="userSpaceOnUse">
<stop stop-color="#FFB800"/>
<stop offset="1" stop-color="#FF7F0A"/>
</linearGradient>
<linearGradient id="paint2_linear_385_966" x1="472.601" y1="574.468" x2="472.601" y2="625.576" gradientUnits="userSpaceOnUse">
<stop stop-color="#FFB800"/>
<stop offset="1" stop-color="#FF7F0A"/>
</linearGradient>
<linearGradient id="paint3_linear_385_966" x1="472.781" y1="524.486" x2="472.781" y2="553.185" gradientUnits="userSpaceOnUse">
<stop stop-color="#FFB800"/>
<stop offset="1" stop-color="#FF7F0A"/>
</linearGradient>
<linearGradient id="paint4_linear_385_966" x1="472.95" y1="535.76" x2="472.95" y2="561.934" gradientUnits="userSpaceOnUse">
<stop stop-color="#FFB800"/>
<stop offset="1" stop-color="#FF7F0A"/>
</linearGradient>
</defs>
</svg>
