<svg width="960" height="960" viewBox="0 0 960 960" fill="none" xmlns="http://www.w3.org/2000/svg">
<g clip-path="url(#clip0_385_967)">
<path d="M817.509 534.429C820.597 556.923 818.501 582.102 809.237 610.163L808.194 609.812C778.094 583.894 743.532 563.665 706.194 550.112C742.412 539.838 779.863 534.561 817.509 534.429V534.429Z" fill="#171717"/>
<path d="M799.549 482.511L799.343 482.624C766.864 472.127 732.08 471.021 699 479.433C717.04 460.748 739.696 447.159 764.675 440.042L764.789 439.919C778.191 452.26 790.244 466.4 799.549 482.511Z" fill="#171717"/>
<path d="M779.141 672.048L779.265 672.131C756.337 707.896 726.634 736.143 692.604 757.749L691.943 756.706C682.39 694.088 655.275 635.464 613.743 587.638C673.384 605 726.717 638.73 779.141 672.048Z" fill="#171717"/>
<path d="M593.5 340.564L533.327 322.1C533.327 322.1 579.162 254.545 577.944 267.176C576.726 279.807 593.5 338.375 593.5 340.564Z" fill="url(#paint0_linear_385_967)"/>
<path d="M438.951 433.887L480.263 427.566L465.959 470.148L438.951 433.887Z" fill="#171717"/>
<path d="M324.735 272.276C324.735 272.276 357.784 325.01 357.784 325.744C357.784 325.744 315.502 360.012 314.769 360.983C314.036 361.954 324.735 272.276 324.735 272.276Z" fill="url(#paint1_linear_385_967)"/>
<path d="M264.513 461.08C248.813 491.919 233.813 521.333 218.113 552.172C234.204 543.166 250.291 534.164 266.375 525.165C259.714 543.899 253.047 562.632 246.375 581.365C265.309 565.832 284.247 550.295 303.189 534.755C293.223 553.263 283.264 571.771 273.311 590.278C309.933 559.842 360.054 552.086 407.604 549.504C427.712 548.409 447.841 548.03 467.991 548.368C541.35 549.59 614.246 560.255 684.879 580.1C667.545 554.833 648.851 530.527 628.879 507.288C648.209 518.557 669.018 527.073 690.702 532.588C674.074 513.14 657.446 493.686 640.818 474.225C656.513 488.246 674.097 499.997 693.056 509.133C668.639 463.484 646.754 416.526 627.5 368.47C617.224 342.858 607.705 316.952 598.943 290.753C591.394 268.176 584.422 243.431 592.499 221.029" stroke="#171717" stroke-width="4" stroke-linecap="round" stroke-linejoin="round"/>
<path d="M592.072 220.079C591.979 220.172 591.897 220.265 591.804 220.358C566.369 246.67 542.717 274.649 521.004 304.107L524.004 300.707" stroke="#171717" stroke-width="4" stroke-linecap="round" stroke-linejoin="round"/>
<path d="M264.514 461.08C260.579 446.208 262.624 430.303 267.158 415.607C271.692 400.911 278.612 387.071 284.643 372.907C304.173 327.037 314.427 277.754 314.811 227.9C332.533 257.967 351.488 287.264 371.676 315.791" stroke="#171717" stroke-width="4" stroke-linecap="round" stroke-linejoin="round"/>
<path d="M366.306 317.915C368.134 317.448 369.967 316.953 371.806 316.428C399.381 308.568 427.938 294.109 450.68 277.285C445.794 284.907 440.913 292.529 436.035 300.151L480.868 276.077C474.283 281.946 469.327 289.418 466.481 297.766C475.029 292.666 484.243 288.776 493.861 286.209L490.607 298.974C500.253 300.657 509.902 302.337 519.556 304.014" stroke="#171717" stroke-width="4" stroke-linecap="round" stroke-linejoin="round"/>
<path d="M628.612 368.026C628.612 368.026 708.55 388.1 764.786 439.919C778.191 452.26 790.244 466.399 799.549 482.511C808.879 498.474 814.981 516.114 817.509 534.429C820.597 556.923 818.501 582.102 809.237 610.163C803.453 627.27 795.991 643.763 786.959 659.4C784.493 663.748 781.928 667.993 779.265 672.135C756.337 707.9 726.634 736.147 692.604 757.753C530.921 860.412 271.485 813.153 176.127 710.43C69.0004 595.012 126.347 548.392 137.563 540.936C138.668 540.182 139.329 539.83 139.329 539.83" stroke="#171717" stroke-width="4" stroke-linecap="round" stroke-linejoin="round"/>
<path d="M467.993 548.671C476.431 573.086 492.759 596.985 504.76 619.871" stroke="#171717" stroke-width="4" stroke-linecap="round" stroke-linejoin="round"/>
<path d="M504.76 619.872C454.457 607.925 402.663 603.488 351.06 606.703C347.218 606.941 343.283 607.251 339.813 608.903C336.343 610.555 333.389 613.861 333.286 617.703C333.11 624.416 340.753 628.237 347.156 630.282C403.005 648.138 460.587 660.029 518.94 665.758" stroke="#171717" stroke-width="4" stroke-linecap="round" stroke-linejoin="round"/>
<path d="M518.941 665.758C458.564 659.727 397.061 655.864 336.684 649.833C328.918 649.058 318.784 649.719 316.411 657.166C315.13 661.152 316.979 665.614 319.964 668.547C322.949 671.48 326.904 673.194 330.777 674.764C407.957 706.109 493.235 709.311 576.488 712.1" stroke="#171717" stroke-width="4" stroke-linecap="round" stroke-linejoin="round"/>
<path d="M583.056 708.237C581.094 709.848 579.056 711.356 576.963 712.781C556.163 726.91 529.506 732.342 504.544 735.905C397.8 751.17 284.715 712.244 209.972 634.527C189.956 613.716 172.265 589.704 164.272 561.953C162.423 555.529 160.998 548.712 156.815 543.487C152.632 538.262 143.015 537.073 137.564 540.936" stroke="#171717" stroke-width="4" stroke-linecap="round" stroke-linejoin="round"/>
<path d="M376.479 404.122C378.521 399.571 381.491 395.497 385.2 392.16C388.908 388.823 393.273 386.298 398.014 384.747C402.755 383.195 407.768 382.651 412.731 383.149C417.695 383.647 422.499 385.176 426.838 387.639" stroke="#171717" stroke-width="4" stroke-linecap="round" stroke-linejoin="round"/>
<path d="M483.33 373.913C485.7 369.696 488.94 366.033 492.837 363.167C496.733 360.301 501.196 358.299 505.927 357.293C510.658 356.288 515.549 356.302 520.275 357.336C525 358.369 529.451 360.397 533.33 363.286" stroke="#171717" stroke-width="4" stroke-linecap="round" stroke-linejoin="round"/>
<path d="M467.643 494.935C480.425 494.614 492.777 490.246 502.92 482.461C513.064 474.676 520.477 463.875 524.095 451.61" stroke="#171717" stroke-width="4" stroke-linecap="round" stroke-linejoin="round"/>
<path d="M465.959 470.148L480.263 427.566L438.951 433.887L465.959 470.148Z" stroke="#171717" stroke-width="4" stroke-linecap="round" stroke-linejoin="round"/>
<path d="M466.723 494.935C466.475 486.673 466.22 478.411 465.959 470.148" stroke="#171717" stroke-width="4" stroke-linecap="round" stroke-linejoin="round"/>
<path d="M357.784 325.744C357.784 325.01 324.735 272.276 324.735 272.276C324.735 272.276 314.036 361.953 314.77 360.983C315.504 360.013 357.784 325.744 357.784 325.744Z" stroke="#171717" stroke-width="4" stroke-linecap="round" stroke-linejoin="round"/>
<path d="M593.5 340.564C593.5 338.375 576.737 279.816 577.946 267.174C579.155 254.532 533.327 322.1 533.327 322.1L593.5 340.564Z" stroke="#171717" stroke-width="4" stroke-linecap="round" stroke-linejoin="round"/>
<path d="M764.672 440.042C739.694 447.159 717.039 460.748 699 479.433C732.081 471.021 766.866 472.127 799.346 482.624" stroke="#171717" stroke-width="4" stroke-linecap="round" stroke-linejoin="round"/>
<path d="M817.561 534.429H817.509C779.865 534.563 742.415 539.842 706.2 550.117C743.538 563.67 778.1 583.899 808.2 609.817" stroke="#171717" stroke-width="4" stroke-linecap="round" stroke-linejoin="round"/>
<path d="M779.141 672.048C726.717 638.73 673.384 605 613.74 587.638C655.272 635.464 682.387 694.088 691.94 756.706" stroke="#171717" stroke-width="4" stroke-linecap="round" stroke-linejoin="round"/>
<path d="M64.6167 294.3C74.4081 301.359 82.5419 310.469 88.451 320.995C94.3601 331.52 97.9023 343.208 98.8307 355.243C99.2307 360.888 98.9997 366.737 96.7257 371.918C94.4517 377.099 89.7937 381.518 84.1767 382.202C75.8187 383.227 68.5507 375.954 65.3377 368.171C63.3637 363.389 62.3727 357.96 63.9517 353.033C65.5307 348.106 70.1927 343.953 75.3607 344.182C82.6787 344.507 86.9607 352.435 89.2547 359.391C91.3977 365.891 93.1197 372.857 91.5947 379.53C88.6007 392.62 74.0187 401.167 72.5777 414.519C71.3587 425.819 82.2777 436.786 93.5897 435.607C104.902 434.428 113.325 421.447 109.8 410.638" stroke="#171717" stroke-width="4" stroke-linecap="round" stroke-linejoin="round"/>
<path d="M680.945 171.158C670.981 194.918 668.117 221.057 672.7 246.41C673.7 251.867 675.091 257.382 678.144 262.01C681.197 266.638 686.187 270.298 691.731 270.487C700.9 270.799 707.654 262.225 712.215 254.265C713.932 251.265 715.615 248.099 715.82 244.652C716.025 241.205 714.357 237.402 711.12 236.204C706.84 234.622 702.299 238.162 700.036 242.125C694.65 251.56 697.008 264.702 705.336 271.675C713.664 278.648 727.017 278.659 735.358 271.697C743.699 264.735 746.075 251.597 740.702 242.154C745.392 247.906 750.145 253.761 753.024 260.601C755.903 267.441 756.701 275.526 753.416 282.181C750.131 288.836 742.066 293.321 735.016 291.016L737.24 287.591" stroke="#171717" stroke-width="4" stroke-linecap="round" stroke-linejoin="round"/>
<path d="M903.916 449.855C896.662 455.742 890.669 463.032 886.298 471.289C881.926 479.546 879.266 488.6 878.475 497.909C877.701 507.656 879.27 518.1 885.493 525.641C890.809 532.082 899.752 535.768 907.826 533.633C915.9 531.498 922.094 522.871 920.364 514.701C918.634 506.531 908.17 501.177 901.008 505.473C893.262 510.119 893.23 521.354 895.638 530.06C898.348 539.86 902.882 549.036 906.546 558.518C910.21 568 913.04 578.102 912.093 588.218C911.146 598.334 905.798 608.518 896.666 612.984C887.534 617.45 874.741 614.384 870.395 605.192C866.049 596 873.995 582.96 884.075 584.297C884.865 586.025 885.179 587.931 884.985 589.821C884.791 591.71 884.095 593.513 882.969 595.042" stroke="#171717" stroke-width="4" stroke-linecap="round" stroke-linejoin="round"/>
<path d="M812.694 640.8C822.069 631.616 829.316 620.489 833.925 608.202C838.533 595.915 840.391 582.767 839.368 569.684" stroke="#171717" stroke-width="4" stroke-linecap="round" stroke-linejoin="round"/>
<path d="M784.987 436.5C775.344 417.215 759.424 401.787 739.847 392.753" stroke="#171717" stroke-width="4" stroke-linecap="round" stroke-linejoin="round"/>
<path d="M119.286 691.208C110.774 682.143 104.167 671.463 99.8547 659.801C95.5423 648.138 93.6122 635.729 94.1786 623.308" stroke="#171717" stroke-width="4" stroke-linecap="round" stroke-linejoin="round"/>
<path d="M55.9653 524.889L45.0303 505.205" stroke="#171717" stroke-width="4" stroke-linecap="round" stroke-linejoin="round"/>
<path d="M40.6553 521.608L55.9653 509.579" stroke="#171717" stroke-width="4" stroke-linecap="round" stroke-linejoin="round"/>
<path d="M183.909 369.606C182.881 362.029 179.863 354.859 175.161 348.829" stroke="#171717" stroke-width="4" stroke-linecap="round" stroke-linejoin="round"/>
<path d="M168.601 364.14L192.862 351.4" stroke="#171717" stroke-width="4" stroke-linecap="round" stroke-linejoin="round"/>
<path d="M421.259 203.351L407.047 183.664" stroke="#171717" stroke-width="4" stroke-linecap="round" stroke-linejoin="round"/>
<path d="M404.8 202.3L421.2 185.9" stroke="#171717" stroke-width="4" stroke-linecap="round" stroke-linejoin="round"/>
<path d="M781.122 370.651L773.467 348.78" stroke="#171717" stroke-width="4" stroke-linecap="round" stroke-linejoin="round"/>
<path d="M767.854 363.03L789.727 353.193" stroke="#171717" stroke-width="4" stroke-linecap="round" stroke-linejoin="round"/>
<path d="M281.487 198.857L258.467 161.711" stroke="#171717" stroke-width="4" stroke-linecap="round" stroke-linejoin="round"/>
<path d="M234.541 190.082C225.685 174.243 215.259 159.335 203.421 145.582" stroke="#171717" stroke-width="4" stroke-linecap="round" stroke-linejoin="round"/>
<path d="M210.471 243.63L188.013 211.23" stroke="#171717" stroke-width="4" stroke-linecap="round" stroke-linejoin="round"/>
<path d="M224.374 434.16C295.994 426.754 368.183 426.656 439.823 433.869" stroke="#171717" stroke-width="4" stroke-linecap="round" stroke-linejoin="round"/>
<path d="M473.424 431.3L700.058 334.611" stroke="#171717" stroke-width="4" stroke-linecap="round" stroke-linejoin="round"/>
<path d="M470.287 436.991L714.954 360.621" stroke="#171717" stroke-width="4" stroke-linecap="round" stroke-linejoin="round"/>
<path d="M466.054 441.893C554.766 433.469 642.98 421.063 730.695 404.675" stroke="#171717" stroke-width="4" stroke-linecap="round" stroke-linejoin="round"/>
<path d="M446.329 437.829C363.778 441.519 281.576 450.855 200.3 465.774" stroke="#171717" stroke-width="4" stroke-linecap="round" stroke-linejoin="round"/>
<path d="M454.164 443.081C371.587 452.545 289.911 468.673 209.936 491.308" stroke="#171717" stroke-width="4" stroke-linecap="round" stroke-linejoin="round"/>
<g opacity="0.1">
<path d="M138.067 539.365C106.66 566.606 111.854 614.049 129.639 647.297C139.081 664.95 151.725 681.697 165.218 696.458C178.378 710.805 192.897 723.844 208.571 735.392C271.388 781.872 349.1 805.492 426.288 812.428C513.858 820.29 606.104 807.639 682.803 762.628C752.092 721.967 814.06 650.839 819.803 567.639C822.703 525.644 806.859 486.021 779.884 454.315C751.762 421.262 713.259 399.307 673.46 383.28C663.399 379.229 653.191 375.565 642.905 372.128C632.933 368.797 628.621 384.583 638.568 387.858C677.568 400.699 716.54 417.384 747.83 444.594C776.063 469.145 798.421 502.394 803.268 540.138C808.502 580.898 794.268 621.887 772.777 656.027C753.043 687.373 726.338 714.213 695.986 735.337C627.111 783.272 542.375 800.686 459.495 798.382C385.568 796.327 310.734 778.955 246.48 741.517C215 723.173 187.243 699.9 162.948 672.792C138.275 645.269 116.221 605.157 130.841 567.815C133.957 559.712 138.824 552.397 145.094 546.392C149.776 541.941 142.853 535.215 138.067 539.365Z" fill="#171717"/>
</g>
</g>
<defs>
<linearGradient id="paint0_linear_385_967" x1="563.414" y1="265.603" x2="563.414" y2="340.564" gradientUnits="userSpaceOnUse">
<stop stop-color="#FFB800"/>
<stop offset="1" stop-color="#FF7F0A"/>
</linearGradient>
<linearGradient id="paint1_linear_385_967" x1="336.259" y1="272.276" x2="336.259" y2="360.991" gradientUnits="userSpaceOnUse">
<stop stop-color="#FFB800"/>
<stop offset="1" stop-color="#FF7F0A"/>
</linearGradient>
<clipPath id="clip0_385_967">
<rect width="885" height="675" fill="white" transform="translate(38 143)"/>
</clipPath>
</defs>
</svg>
